# Blender 3.6.2
# www.blender.org
o Chassis
v 0.000000 -0.200000 0.500000
v 0.000000 -0.200000 -0.500000
v -0.500000 -0.500000 0.500000
v -0.500000 0.500000 0.500000
v -0.500000 -0.500000 -0.500000
v -0.500000 0.500000 -0.500000
v 0.500000 -0.500000 0.500000
v 0.500000 0.500000 0.500000
v 0.500000 -0.500000 -0.500000
v 0.500000 0.500000 -0.500000
v 0.250000 0.500000 0.500000
v 0.250000 0.500000 -0.500000
v 0.450000 0.500000 -0.250000
v 0.450000 0.500000 0.250000
v 0.100000 -0.200000 0.150000
v 0.100000 -0.200000 -0.150000
v -0.500000 -0.200000 -0.500000
v -0.500000 -0.200000 0.500000
v -0.499856 0.500000 0.500000
v -0.499856 0.500000 -0.500000
v 0.500096 1.500000 0.500000
v 0.500096 1.500000 -0.500000
v -0.499760 1.500000 0.500000
v -0.499760 1.500000 -0.500000
v -0.499760 1.500000 0.500000
v -0.499760 1.500000 -0.500000
v 0.500096 1.500000 0.500000
v 0.500096 1.500000 -0.500000
vn -0.0000 1.0000 -0.0000
vn -1.0000 -0.0000 -0.0000
vn 1.0000 -0.0000 -0.0000
vn -0.0000 -1.0000 -0.0000
vn -0.0000 -0.0000 1.0000
vn -0.8944 0.4472 -0.0000
vn -0.0000 -0.0000 -1.0000
vn -0.9094 0.3248 0.2598
vn -0.9094 0.3248 -0.2598
vn 1.0000 -0.0002 -0.0000
vn 1.0000 -0.0001 -0.0000
vn -1.0000 0.0001 -0.0000
vn -1.0000 0.0002 -0.0000
vn -0.7041 0.4325 0.5632
vn -0.7041 0.4325 -0.5632
vt 0.328125 0.250000
vt 0.343750 0.000000
vt 0.343750 0.328125
vt 0.234375 1.000000
vt 0.000000 0.671875
vt 0.234375 0.671875
vt 0.000000 0.000000
vt -0.000000 0.328125
vt 0.343750 0.671875
vt 0.171875 0.437500
vt 0.093750 0.671875
vt 0.953125 0.484375
vt 0.390625 0.203125
vt 0.953125 0.281250
vt 0.421875 0.031250
vt 0.968750 0.031250
vt 0.421875 0.750000
vt 0.968750 0.750000
vt 0.171875 0.328125
vt 0.203125 0.125000
vt 0.343750 0.437500
vt 0.968750 1.000000
vt 0.718750 0.750000
vt 0.718750 1.000000
vt 0.671875 1.000000
vt 0.421875 1.000000
vt 0.671875 0.750000
vt 0.328125 0.093750
vt 0.265625 0.000000
vt 0.265625 0.328125
vt 0.343750 1.000000
vt 0.000000 1.000000
vt 0.390625 0.562500
vt 0.203125 0.218750
vt 0.171875 -0.000000
s 0
f 13/1/1 8/2/1 10/3/1
f 18/4/2 6/5/2 17/6/2
f 10/7/3 7/3/3 9/8/3
f 9/3/4 3/7/4 5/2/4
f 4/9/5 1/10/5 11/11/5
f 15/12/6 13/13/6 16/14/6
f 1/10/5 3/3/5 7/8/5
f 9/8/7 2/10/7 10/5/7
f 16/14/8 12/15/8 2/16/8
f 11/17/9 15/12/9 1/18/9
f 2/19/1 18/7/1 15/20/1
f 6/9/7 2/10/7 17/21/7
f 19/9/7 1/10/7 18/21/7
f 2/10/5 20/9/5 17/21/5
f 17/4/10 19/5/10 18/6/10
f 20/22/11 23/23/11 19/18/11
f 8/22/12 22/23/12 10/18/12
f 24/23/5 10/22/5 22/24/5
f 23/24/7 8/18/7 19/22/7
f 21/17/4 24/25/4 22/26/4
f 25/23/5 8/22/5 27/24/5
f 26/24/7 10/18/7 20/22/7
f 4/22/13 26/23/13 6/18/13
f 28/24/11 8/18/11 10/22/11
f 27/27/1 26/26/1 25/17/1
f 14/28/1 11/29/1 8/2/1
f 10/3/1 12/30/1 13/1/1
f 13/1/1 14/28/1 8/2/1
f 5/9/2 3/31/2 18/4/2
f 18/4/2 4/32/2 6/5/2
f 17/6/2 5/9/2 18/4/2
f 10/7/3 8/2/3 7/3/3
f 9/3/4 7/8/4 3/7/4
f 4/9/5 18/21/5 1/10/5
f 15/12/6 14/33/6 13/13/6
f 8/5/5 11/11/5 1/10/5
f 1/10/5 18/21/5 3/3/5
f 7/8/5 8/5/5 1/10/5
f 9/8/7 5/3/7 17/21/7
f 2/10/7 12/11/7 10/5/7
f 9/8/7 17/21/7 2/10/7
f 16/14/14 13/13/14 12/15/14
f 11/17/15 14/33/15 15/12/15
f 15/20/1 16/34/1 2/19/1
f 2/19/1 17/8/1 18/7/1
f 18/7/1 1/35/1 15/20/1
f 6/9/7 12/11/7 2/10/7
f 19/9/7 11/11/7 1/10/7
f 2/10/5 12/11/5 20/9/5
f 17/4/10 20/32/10 19/5/10
f 20/22/11 24/24/11 23/23/11
f 8/22/12 21/24/12 22/23/12
f 24/23/5 20/18/5 10/22/5
f 23/24/7 21/23/7 8/18/7
f 21/17/4 23/27/4 24/25/4
f 25/23/5 4/18/5 8/22/5
f 26/24/7 28/23/7 10/18/7
f 4/22/13 25/24/13 26/23/13
f 28/24/11 27/23/11 8/18/11
f 27/27/1 28/25/1 26/26/1
